<svg id="Layer_1" data-name="Layer 1" xmlns="http://www.w3.org/2000/svg" viewBox="0 0 193.53 51.05"><defs><style>.cls-1{fill:#fff;}</style></defs><title>Untitled-1</title><path class="cls-1" d="M36.42,57.94a1.11,1.11,0,0,1-.74-0.28L26.92,49.8H8.58a5,5,0,0,1-5-5V26.59a5,5,0,0,1,5-5h31a5,5,0,0,1,5,5V44.85a5,5,0,0,1-5,5h-2v7A1.11,1.11,0,0,1,36.42,57.94ZM8.58,23.84a2.74,2.74,0,0,0-2.74,2.74V44.85a2.74,2.74,0,0,0,2.74,2.74H27.34a1.11,1.11,0,0,1,.74.28l7.23,6.48V48.69a1.11,1.11,0,0,1,1.11-1.11h3.14a2.74,2.74,0,0,0,2.74-2.74V26.59a2.74,2.74,0,0,0-2.74-2.74h-31Z" transform="translate(-3.62 -6.89)"/><path class="cls-1" d="M74.09,9.61a2.12,2.12,0,0,0-2.24-2.19H43.56a2.09,2.09,0,0,0-2.19,2.19,2.12,2.12,0,0,0,2.19,2.24H55.37v36a2.23,2.23,0,0,0,.76,1.7,2.37,2.37,0,0,0,1.6.61,2.21,2.21,0,0,0,2.3-2.3v-36H71.85A2.15,2.15,0,0,0,74.09,9.61Z" transform="translate(-3.62 -6.89)"/><path class="cls-1" d="M107.18,6.89a2.39,2.39,0,0,0-2.3,2.3V47.94a2.17,2.17,0,0,0,.77,1.64,2.3,2.3,0,0,0,1.54.61,2.15,2.15,0,0,0,2.24-2.24V9.19a2.3,2.3,0,0,0-.61-1.54A2.17,2.17,0,0,0,107.18,6.89Z" transform="translate(-3.62 -6.89)"/><path class="cls-1" d="M173.1,24.27A12.28,12.28,0,0,0,169,21.45a13.66,13.66,0,0,0-8.93-.54,14.74,14.74,0,0,0-3.35,1.38,14.36,14.36,0,0,0-2.35,1.64V23a2.27,2.27,0,0,0-.61-1.54,2.17,2.17,0,0,0-1.64-.76,2.39,2.39,0,0,0-2.3,2.3V47.88a2.39,2.39,0,0,0,2.3,2.3,2.17,2.17,0,0,0,1.64-.76,2.31,2.31,0,0,0,.61-1.54V33.53a7.73,7.73,0,0,1,.75-3.35,9.42,9.42,0,0,1,2.07-2.83,9.78,9.78,0,0,1,3-1.92,9.48,9.48,0,0,1,7,0,7.26,7.26,0,0,1,2.56,1.79,8.35,8.35,0,0,1,1.66,2.74,9.85,9.85,0,0,1,.59,3.44V47.88a2.33,2.33,0,0,0,.62,1.55,2.19,2.19,0,0,0,1.63.75,2.39,2.39,0,0,0,2.3-2.3V33.59a14.58,14.58,0,0,0-.89-5.12A12.36,12.36,0,0,0,173.1,24.27Z" transform="translate(-3.62 -6.89)"/><path class="cls-1" d="M195,21.18h-4V13.86a2.3,2.3,0,0,0-.61-1.54,2.17,2.17,0,0,0-1.64-.76,2.39,2.39,0,0,0-2.3,2.3v7.32H183a2,2,0,0,0-2.13,2.13,2.23,2.23,0,0,0,.53,1.46,2.06,2.06,0,0,0,1.59.72h3.48V47.94a2.17,2.17,0,0,0,.77,1.64,2.3,2.3,0,0,0,1.54.61A2.15,2.15,0,0,0,191,47.94V25.49h4a2.06,2.06,0,0,0,1.59-.72,2.23,2.23,0,0,0,.53-1.46A2,2,0,0,0,195,21.18Z" transform="translate(-3.62 -6.89)"/><path class="cls-1" d="M140.08,24.8a14.33,14.33,0,0,0-4.54-3.19,14.68,14.68,0,0,0-11.5,0,14,14,0,0,0-4.62,3.2,14.59,14.59,0,0,0-3,4.79,15.89,15.89,0,0,0-1.08,5.86,14.85,14.85,0,0,0,1.18,5.9,15.09,15.09,0,0,0,3.21,4.77,14.79,14.79,0,0,0,4.75,3.18,15,15,0,0,0,5.86,1.15,14.75,14.75,0,0,0,7.28-1.87,15.66,15.66,0,0,0,1.79-1.18,2.27,2.27,0,0,0,1.11-1.92,2.32,2.32,0,0,0-2.24-2.24,2.06,2.06,0,0,0-1.33.5h0a10.76,10.76,0,0,1-1.55,1.09,10.31,10.31,0,0,1-9.06.49A10.49,10.49,0,0,1,123.05,43a11,11,0,0,1-2.24-3.34,10.51,10.51,0,0,1-.75-2.57h22a2.22,2.22,0,0,0,1.46-.53,2.15,2.15,0,0,0,.72-1.69,14.88,14.88,0,0,0-1.18-5.5A15.31,15.31,0,0,0,140.08,24.8Zm-19.92,8a10.75,10.75,0,0,1,.74-2.22A10.4,10.4,0,0,1,123,27.51a9.63,9.63,0,0,1,3-2,10.07,10.07,0,0,1,7.54,0,9.37,9.37,0,0,1,3,2,11,11,0,0,1,2.84,5.32H120.16Z" transform="translate(-3.62 -6.89)"/><path class="cls-1" d="M97.32,22.62a2.1,2.1,0,0,0-4.2,0v2.43a14.88,14.88,0,1,0,0,20.69v2.43a2.1,2.1,0,0,0,4.2,0V47.91c0-.05,0-0.11,0-0.16V30.48c0-.06,0-0.11,0-0.16V22.62ZM82.44,46.07A10.68,10.68,0,1,1,93.12,35.4,10.69,10.69,0,0,1,82.44,46.07Z" transform="translate(-3.62 -6.89)"/><path class="cls-1" d="M19.68,30.53a1,1,0,0,0-.72.33,1,1,0,0,0-.26.67v0.16a6,6,0,0,0-.58-0.42,5.12,5.12,0,0,0-2.82-.82,5.26,5.26,0,0,0-2.11.43,5.41,5.41,0,0,0-2.85,2.85,5.43,5.43,0,0,0,0,4.22,5.41,5.41,0,0,0,2.85,2.85,5.26,5.26,0,0,0,2.11.43,5.12,5.12,0,0,0,2.82-.82A6,6,0,0,0,18.69,40a4.11,4.11,0,0,1-.21,1.09,2.72,2.72,0,0,1-.62,1,2.91,2.91,0,0,1-1.06.68,4.53,4.53,0,0,1-1.62.26,9.36,9.36,0,0,1-3.26-.57l-0.12,0H11.6a0.9,0.9,0,0,0-.9.71l0,0.09v0.15a0.92,0.92,0,0,0,.61.87,8,8,0,0,0,1.92.54,13.08,13.08,0,0,0,2,.16,6.23,6.23,0,0,0,2.38-.42,4.65,4.65,0,0,0,2.74-2.93h0a6.67,6.67,0,0,0,.32-2.09v-8a1,1,0,0,0-.3-0.7A1,1,0,0,0,19.68,30.53ZM15.3,39.31A3.21,3.21,0,0,1,14,39a3.42,3.42,0,0,1-1.08-.75,3.68,3.68,0,0,1-.73-1.12,3.47,3.47,0,0,1,0-2.68,3.67,3.67,0,0,1,.73-1.12A3.43,3.43,0,0,1,14,32.62a3.21,3.21,0,0,1,1.32-.27,3.17,3.17,0,0,1,1.32.27,3.43,3.43,0,0,1,1.08.75,3.68,3.68,0,0,1,.73,1.12,3.47,3.47,0,0,1,0,2.68,3.68,3.68,0,0,1-.73,1.12,3.42,3.42,0,0,1-1.08.75A3.17,3.17,0,0,1,15.3,39.31Z" transform="translate(-3.62 -6.89)"/><path class="cls-1" d="M37.69,30.71H36.51V28.4a1,1,0,0,0-.26-0.67,1,1,0,0,0-.72-0.33,1,1,0,0,0-1,1v2.32h-1a0.91,0.91,0,0,0-.94.94,1,1,0,0,0,.23.64,0.91,0.91,0,0,0,.71.32h1v7.53a1,1,0,0,0,.33.72,1,1,0,0,0,.67.26,1,1,0,0,0,1-1V32.61h1.18a0.91,0.91,0,0,0,.71-0.32,1,1,0,0,0,.23-0.64A0.91,0.91,0,0,0,37.69,30.71Z" transform="translate(-3.62 -6.89)"/><path class="cls-1" d="M30.78,32.23a4.86,4.86,0,0,0-1.54-1.08,5,5,0,0,0-3.9,0,4.73,4.73,0,0,0-1.57,1.09,5,5,0,0,0-1,1.62,5.39,5.39,0,0,0-.37,2,5,5,0,0,0,.4,2,5.12,5.12,0,0,0,1.09,1.62,5,5,0,0,0,1.61,1.08,5.07,5.07,0,0,0,2,.39,5,5,0,0,0,2.47-.63,5.31,5.31,0,0,0,.61-0.4,0.77,0.77,0,0,0,.38-0.65,0.79,0.79,0,0,0-.76-0.76,4.91,4.91,0,0,0-1,.54,3.5,3.5,0,0,1-3.07.17A3.56,3.56,0,0,1,25,38.41a3.73,3.73,0,0,1-.76-1.13A3.56,3.56,0,0,1,24,36.41h7.46a0.75,0.75,0,0,0,.5-0.18,0.73,0.73,0,0,0,.25-0.57,5,5,0,0,0-.4-1.87A5.19,5.19,0,0,0,30.78,32.23ZM24,34.95a3.65,3.65,0,0,1,.25-0.75,3.52,3.52,0,0,1,.72-1,3.26,3.26,0,0,1,1-.69,3.41,3.41,0,0,1,2.56,0,3.18,3.18,0,0,1,1,.69,3.74,3.74,0,0,1,1,1.8H24Z" transform="translate(-3.62 -6.89)"/></svg>